<svg xmlns="http://www.w3.org/2000/svg" viewBox="0 0 34.6 34.7" style="enable-background:new 0 0 34.6 34.7" xml:space="preserve"><style>.st0{display:none}.st1{display:inline}</style><g id="Calque_1"><path id="Behance" d="M24 12.9h-4.3v-1.1H24v1.1zm-7.1 4.3c.3.5.4 1 .4 1.6 0 .6-.2 1.2-.5 1.7-.2.3-.4.6-.8.8-.4.3-.8.4-1.2.5-.5.1-1 .1-1.5.1H8.6V11.4h5.1c1-.1 2.1.3 2.7 1.1.3.5.5 1 .5 1.6 0 .6-.1 1.1-.5 1.6-.2.3-.5.5-.8.6.6.1 1 .5 1.3.9zm-5.8-1.7h2.2c.4 0 .8 0 1.1-.2.3-.2.5-.6.4-1 0-.4-.2-.8-.6-1-.4-.1-.8-.2-1.2-.2h-2l.1 2.4zm4 3.1c0-.5-.2-.9-.7-1.1-.3-.1-.7-.2-1.1-.2H11v2.8h2.2c.4 0 .7 0 1.1-.2.5-.2.8-.7.8-1.3zm10.5-1.7c.1.5.1 1 .1 1.5h-5.5c0 .6.3 1.2.8 1.6.3.2.7.3 1.1.3.6.1 1.2-.3 1.5-.9h2c-.1.5-.3 1-.7 1.4-.9.7-1.9 1.2-3 1.1-1 0-1.9-.3-2.7-.9-.8-.8-1.3-1.9-1.2-3-.1-1.1.3-2.2 1-3 .7-.7 1.7-1.1 2.7-1.1.6 0 1.2.1 1.8.4.6.2 1 .6 1.4 1.1.4.4.6.9.7 1.5zm-2 .2c0-.5-.2-.9-.5-1.2-.3-.3-.7-.4-1.2-.4-.4 0-.9.1-1.2.4-.3.3-.5.7-.5 1.2h3.4z"/><path d="M17.3 34.4c-9.4 0-17-7.6-17-17s7.6-17 17-17 17 7.6 17 17c-.1 9.4-7.7 17-17 17zm0-33.2C8.4 1.3 1.2 8.5 1.2 17.4c0 8.9 7.3 16.1 16.1 16.1 8.9 0 16.1-7.2 16.1-16.1 0-9-7.3-16.2-16.1-16.2z"/></g></svg>