<?xml version="1.0" encoding="utf-8"?>
<!-- Generator: Adobe Illustrator 25.3.0, SVG Export Plug-In . SVG Version: 6.00 Build 0)  -->
<svg version="1.1" xmlns="http://www.w3.org/2000/svg" xmlns:xlink="http://www.w3.org/1999/xlink" x="0px" y="0px"
	 viewBox="0 0 32 32" style="enable-background:new 0 0 32 32;" xml:space="preserve">
<style type="text/css">
	.st0{display:none;}
	.st1{display:inline;}
	.st2{display:inline;fill:#413DE8;}
	.st3{fill:#413DE8;}
</style>
<g id="Calque_1" class="st0">
	<g id="_x30_rFSoJ.tif" class="st1">
		
			<image style="overflow:visible;" width="298" height="252" id="Calque_1_2_" xlink:href="D78252E612CF2DE.png"  transform="matrix(0.146 -2.162578e-03 2.162578e-03 0.146 -3.193235e-02 2.1726)">
		</image>
	</g>
</g>
<g id="Calque_2" class="st0">
	<g id="doiX0R.tif" class="st1">
		
			<image style="overflow:visible;" width="920" height="1256" id="Calque_1_3_" xlink:href="D78252E612CF2E2.png"  transform="matrix(3.196101e-02 0 0 3.196101e-02 3.3653 -3.7072)">
		</image>
	</g>
</g>
<g id="Calque_3_-_copie" class="st0">
	<path class="st1" d="M17.1,1.1c-0.2-0.4-0.5-0.7-1-0.7h-0.2c-0.4,0-0.8,0.3-1,0.7L2,30.9c-0.1,0.3,0,0.6,0.3,0.6c0,0,0.1,0,0.1,0H7
		c0.1,0,0.1,0,0.2,0c0.3-0.1,0.6-0.3,0.8-0.6l2.9-7.2h10.3l2.9,7.2c0.1,0.3,0.4,0.6,0.8,0.6c0.1,0,0.1,0,0.2,0h4.6c0,0,0.1,0,0.1,0
		c0.3-0.1,0.4-0.4,0.3-0.6L17.1,1.1z M12.7,19.2l3.3-8.3l3.3,8.3H12.7z"/>
</g>
<g id="Calque_3_-_copie_2" class="st0">
	<path class="st1" d="M23.7,11.5c-2.5,0-4.3,1.9-4.3,4.3c0,2.5,1.8,4.3,4.3,4.3c2.4,0,4.3-1.8,4.3-4.3C28,13.4,26.1,11.5,23.7,11.5z
		"/>
	<path class="st1" d="M8.8,11.5c-2.1,0-3.8,1.4-4.2,3.3c-0.2,0.7-0.2,1.3,0,2c0.4,2,2,3.3,4.2,3.3c2.4,0,4.3-1.8,4.3-4.3
		C13.1,13.4,11.2,11.5,8.8,11.5z"/>
</g>
<g id="Calque_3_-_copie_3" class="st0">
	<path class="st2" d="M16.3,6.7c-5.4,0-9.5,4.2-9.5,9.5c0,5.6,4,9.5,9.5,9.5c5.3,0,9.5-3.9,9.5-9.5C25.8,10.9,21.6,6.7,16.3,6.7z"/>
</g>
<g id="Calque_3_-_copie_4">
	<path class="st3" d="M19.8,10.1c-5.4,0-9.5,4.2-9.5,9.5c0,5.6,4,9.5,9.5,9.5c5.3,0,9.5-3.9,9.5-9.5C29.3,14.3,25.1,10.1,19.8,10.1z
		"/>
	<path d="M7.4,3C5.3,3,3.7,4.4,3.2,6.3c-0.2,0.7-0.2,1.3,0,2c0.4,2,2,3.3,4.2,3.3c2.4,0,4.3-1.8,4.3-4.3C11.8,4.9,9.9,3,7.4,3z"/>
</g>
<g id="Calque_3" class="st0">
	<path class="st1" d="M10.8,7.8c-0.1-0.2-0.3-0.4-0.5-0.4h-0.1c-0.2,0-0.5,0.1-0.5,0.4L2.3,24.5c-0.1,0.1,0,0.3,0.2,0.4
		c0,0,0,0,0.1,0h2.6c0,0,0.1,0,0.1,0c0.2,0,0.3-0.2,0.4-0.4l1.6-4H13l1.6,4c0.1,0.2,0.2,0.3,0.4,0.4c0,0,0.1,0,0.1,0h2.6
		c0,0,0.1,0,0.1,0c0.2,0,0.2-0.2,0.2-0.4L10.8,7.8z M8.3,17.9l1.9-4.6l1.8,4.6H8.3z"/>
	<path class="st1" d="M29.3,22.1h-6V7.8c0-0.2-0.2-0.4-0.4-0.4h-2.3c-0.2,0-0.4,0.2-0.4,0.4v16.7c0,0.2,0.1,0.3,0.3,0.4
		c0,0,0.1,0,0.1,0h8.7c0,0,0.1,0,0.1,0c0.2,0,0.3-0.2,0.3-0.4v-1.9C29.7,22.3,29.5,22.1,29.3,22.1z"/>
</g>
</svg>
