<svg xmlns="http://www.w3.org/2000/svg" viewBox="0 0 34.6 34.7" style="enable-background:new 0 0 34.6 34.7" xml:space="preserve"><style>.st0{display:none}.st1{display:inline}</style><g id="Calque_2"><path d="M10.6 13.3h3.2v9.1h-3.2zM20.9 13.3c1.2 0 3.3.5 3.3 3.3v5.8h-2.7v-4.6c0-.2.1-2.2-1.6-2.2-1.7 0-1.6 2-1.6 2.2v4.6h-2.6v-9.1h2.5v1.3c.5-1 1.6-1.3 2.7-1.3z"/><circle cx="12.2" cy="10.4" r="1.6"/><path d="M17.3 34.4c-9.4 0-17-7.6-17-17s7.6-17 17-17 17 7.6 17 17c-.1 9.4-7.7 17-17 17zm0-33.2C8.4 1.3 1.2 8.5 1.2 17.4c0 8.9 7.3 16.1 16.1 16.1 8.9 0 16.1-7.2 16.1-16.1 0-9-7.3-16.2-16.1-16.2z"/></g></svg>