<svg version="1.1"  xmlns="http://www.w3.org/2000/svg" xmlns:xlink="http://www.w3.org/1999/xlink" x="0px" y="0px" viewBox="0 0 300 60.5" enable-background="new 0 0 300 60.5" xml:space="preserve">
<g>
	<path fill="#010202" d="M19.638,21.405c-0.121-0.272-0.363-0.454-0.667-0.454H18.82c-0.302,0-0.575,0.182-0.666,0.454L9.25,41.967
		c-0.078,0.184,0.025,0.389,0.211,0.442c0.029,0.008,0.06,0.012,0.093,0.012h3.15c0.046,0,0.091-0.004,0.133-0.012
		c0.24-0.045,0.43-0.211,0.533-0.442l1.968-4.936h7.085l1.999,4.936c0.103,0.231,0.292,0.396,0.531,0.442
		c0.043,0.008,0.089,0.012,0.135,0.012h3.149c0.033,0,0.064-0.004,0.093-0.012c0.186-0.053,0.289-0.258,0.209-0.442L19.638,21.405z
		 M16.609,33.912l2.303-5.693l2.27,5.693H16.609z"/>
	<path fill="#010202" d="M49.05,21.223h-2.756c-0.272,0-0.484,0.212-0.484,0.485v12.324L33.242,21.253
		c-0.182-0.182-0.424-0.272-0.667-0.272c-0.181,0-0.363,0.182-0.363,0.394v20.562c0,0.234,0.155,0.422,0.372,0.472
		c0.036,0.008,0.073,0.012,0.113,0.012h2.755c0.037,0,0.075-0.004,0.111-0.012c0.216-0.05,0.372-0.238,0.372-0.472V29.37
		l12.506,13.022c0.006,0.006,0.012,0.011,0.018,0.017c0.18,0.199,0.414,0.286,0.649,0.286c0.201,0,0.359-0.124,0.408-0.286
		c0.01-0.035,0.017-0.071,0.017-0.108V21.708C49.534,21.436,49.322,21.223,49.05,21.223z"/>
	<path fill="#010202" d="M63.666,21.405c-0.121-0.272-0.363-0.454-0.665-0.454h-0.152c-0.303,0-0.576,0.182-0.666,0.454
		l-8.904,20.562c-0.078,0.184,0.025,0.389,0.211,0.442c0.029,0.008,0.061,0.012,0.093,0.012h3.149c0.047,0,0.092-0.004,0.135-0.012
		c0.24-0.045,0.429-0.211,0.532-0.442l1.968-4.936h7.086l1.999,4.936c0.104,0.231,0.292,0.396,0.533,0.442
		c0.042,0.008,0.087,0.012,0.134,0.012h3.149c0.034,0,0.064-0.004,0.093-0.012c0.186-0.053,0.289-0.258,0.21-0.442L63.666,21.405z
		 M60.637,33.912l2.303-5.693l2.27,5.693H60.637z"/>
	<path fill="#010202" d="M82.187,18.028c-1.14,0-1.988,0.877-1.988,1.987c0,1.17,0.848,1.988,1.988,1.988
		c1.112,0,1.987-0.818,1.987-1.988C84.174,18.905,83.299,18.028,82.187,18.028z"/>
	<path fill="#010202" d="M80.212,24.874h-1.399h-1.351c-0.272,0-0.482,0.175-0.482,0.399v16.674c0,0.225,0.21,0.398,0.482,0.398
		h1.351h1.399c0.271,0,0.482-0.174,0.482-0.398V25.273C80.694,25.049,80.483,24.874,80.212,24.874z"/>
	<path fill="#010202" d="M75.349,18.028c-0.964,0-1.726,0.643-1.929,1.521c-0.089,0.322-0.089,0.613,0,0.935
		c0.175,0.907,0.935,1.521,1.929,1.521c1.111,0,1.987-0.818,1.987-1.988C77.335,18.905,76.459,18.028,75.349,18.028z"/>
	<path fill="#010202" d="M95.671,30.126c-3.09-1.272-4.785-1.605-4.785-3.543c0-1.303,1.209-2.241,2.875-2.241
		c1.817,0,2.999,0.696,3.755,1.877l2.696-1.848c-1.242-1.938-3.3-3.421-6.512-3.421c-3.573,0-6.541,2.211-6.541,5.694
		c0,3.725,2.666,5.118,6.058,6.389c2.574,0.969,4.299,1.696,4.299,3.604c0,1.029-0.635,2.755-3.573,2.755
		c-2.543,0-4.33-1.302-5.298-3.21l-2.847,1.787c0.961,2.147,2.734,3.748,5.216,4.439c0.879,0.244,1.846,0.376,2.899,0.376
		c1.104,0,2.082-0.132,2.936-0.376c2.988-0.854,4.455-3.083,4.455-5.862C101.304,33.306,99.516,31.67,95.671,30.126z"/>
	<path fill="#010202" d="M127.934,39.09h-7.328V21.708c0-0.273-0.214-0.485-0.485-0.485h-2.757c-0.271,0-0.483,0.212-0.483,0.485
		v20.228c0,0.234,0.156,0.422,0.373,0.472c0.034,0.008,0.072,0.012,0.11,0.012h10.57c0.037,0,0.075-0.004,0.111-0.012
		c0.217-0.05,0.372-0.238,0.372-0.472v-2.362C128.417,39.302,128.206,39.09,127.934,39.09z"/>
	<path fill="#010202" d="M146.28,21.223h-13.203c-0.272,0-0.486,0.212-0.486,0.485v20.228c0,0.234,0.157,0.422,0.374,0.472
		c0.036,0.008,0.072,0.012,0.112,0.012h13.203c0.038,0,0.077-0.004,0.112-0.012c0.216-0.05,0.372-0.238,0.372-0.472v-2.362
		c0-0.272-0.213-0.484-0.484-0.484h-9.994v-5.452h7.722c0.273,0,0.485-0.211,0.485-0.483v-2.363c0-0.272-0.212-0.483-0.485-0.483
		h-7.722v-5.755h9.994c0.271,0,0.484-0.211,0.484-0.485v-2.361C146.764,21.436,146.551,21.223,146.28,21.223z"/>
	<path fill="#010202" d="M171.246,21.375c-0.092-0.273-0.333-0.454-0.637-0.454c-0.272,0-0.545,0.181-0.637,0.423l-5.965,13.476
		l-5.965-13.476c-0.121-0.242-0.364-0.423-0.667-0.423c-0.273,0-0.515,0.181-0.606,0.454l-6.906,20.592
		c-0.052,0.184,0.055,0.389,0.24,0.442c0.028,0.008,0.062,0.012,0.093,0.012h3c0.042,0,0.084-0.004,0.125-0.012
		c0.227-0.045,0.435-0.211,0.512-0.442l3.969-12.81l5.75,13.252l0.031,0.073c0.062,0.151,0.244,0.272,0.425,0.272
		c0.182,0,0.363-0.121,0.424-0.272l0.032-0.073l5.752-13.252l3.967,12.81c0.077,0.231,0.263,0.396,0.502,0.442
		c0.043,0.008,0.088,0.012,0.135,0.012h2.998c0.031,0,0.063-0.004,0.093-0.012c0.186-0.053,0.292-0.258,0.24-0.442L171.246,21.375z"
		/>
	<path fill="#010202" d="M196.047,21.223h-13.203c-0.272,0-0.485,0.212-0.485,0.485v20.228c0,0.234,0.156,0.422,0.373,0.472
		c0.036,0.008,0.073,0.012,0.112,0.012h13.203c0.038,0,0.077-0.004,0.113-0.012c0.215-0.05,0.371-0.238,0.371-0.472v-2.362
		c0-0.272-0.212-0.484-0.484-0.484h-9.994v-5.452h7.724c0.271,0,0.483-0.211,0.483-0.483v-2.363c0-0.272-0.212-0.483-0.483-0.483
		h-7.724v-5.755h9.994c0.272,0,0.484-0.211,0.484-0.485v-2.361C196.531,21.436,196.319,21.223,196.047,21.223z"/>
	<path fill="#010202" d="M216.791,27.977c0-2.756-1.727-6.753-7.479-6.753h-7.45c-0.272,0-0.483,0.212-0.483,0.485v20.228
		c0,0.234,0.155,0.422,0.371,0.472c0.035,0.008,0.072,0.012,0.112,0.012h2.694c0.04,0,0.077-0.004,0.113-0.012
		c0.217-0.05,0.371-0.238,0.371-0.472V34.82h3.543l3.361,7.176c0.104,0.206,0.314,0.367,0.561,0.412
		c0.045,0.008,0.091,0.012,0.138,0.012h3.028c0.029,0,0.057-0.004,0.081-0.012c0.167-0.052,0.27-0.254,0.191-0.412
		c-1.121-2.422-2.483-5.268-3.604-7.691C214.792,33.336,216.791,31.065,216.791,27.977z M209.583,31.428h-4.543v-6.904h4.422
		c2.969,0,3.604,2.272,3.604,3.453C213.065,29.066,212.431,31.369,209.583,31.428z"/>
	<path fill="#010202" d="M230.932,24.312c1.999,0,4.028,1.09,5.24,2.301c0.182,0.183,0.484,0.212,0.696,0.031l1.757-1.697
		c0.211-0.182,0.211-0.484,0.028-0.696c-1.937-2.029-4.299-3.33-7.722-3.33c-8.085,0-10.507,6.449-10.507,10.871
		c0,3.971,1.851,9.332,7.72,10.617c0.844,0.184,1.771,0.286,2.787,0.286c0.949,0,1.827-0.1,2.643-0.286
		c1.978-0.451,3.597-1.415,4.99-2.743c0.212-0.182,0.242-0.485,0.061-0.697l-1.544-1.938c-0.152-0.212-0.456-0.243-0.669-0.061
		c-1.391,1.151-3.42,2.301-5.48,2.301c-5.903,0-6.752-5.602-6.752-7.479C224.18,29.914,225.028,24.312,230.932,24.312z"/>
	<path fill="#010202" d="M246.774,21.223h-2.756c-0.271,0-0.484,0.212-0.484,0.485v20.228c0,0.234,0.156,0.422,0.372,0.472
		c0.036,0.008,0.073,0.012,0.112,0.012h2.756c0.038,0,0.077-0.004,0.113-0.012c0.216-0.05,0.371-0.238,0.371-0.472V21.708
		C247.259,21.436,247.047,21.223,246.774,21.223z"/>
	<path fill="#010202" d="M266.481,21.223h-13.203c-0.272,0-0.484,0.212-0.484,0.485v20.228c0,0.234,0.155,0.422,0.371,0.472
		c0.036,0.008,0.074,0.012,0.113,0.012h13.203c0.039,0,0.076-0.004,0.112-0.012c0.217-0.05,0.372-0.238,0.372-0.472v-2.362
		c0-0.272-0.212-0.484-0.484-0.484h-9.993v-5.452h7.722c0.274,0,0.484-0.211,0.484-0.483v-2.363c0-0.272-0.21-0.483-0.484-0.483
		h-7.722v-5.755h9.993c0.272,0,0.484-0.211,0.484-0.485v-2.361C266.966,21.436,266.754,21.223,266.481,21.223z"/>
	<path fill="#010202" d="M282.475,34.305c2.453-0.969,4.452-3.24,4.452-6.329c0-2.756-1.726-6.753-7.479-6.753h-7.45
		c-0.272,0-0.484,0.212-0.484,0.485v20.228c0,0.234,0.156,0.422,0.373,0.472c0.036,0.008,0.072,0.012,0.111,0.012h2.696
		c0.038,0,0.075-0.004,0.111-0.012c0.216-0.05,0.371-0.238,0.371-0.472V34.82h3.545l3.36,7.176c0.103,0.206,0.313,0.367,0.559,0.412
		c0.046,0.008,0.092,0.012,0.139,0.012h3.028c0.028,0,0.056-0.004,0.082-0.012c0.166-0.052,0.268-0.254,0.189-0.412
		C284.958,39.574,283.596,36.729,282.475,34.305z M279.719,31.428h-4.543v-6.904h4.423c2.968,0,3.604,2.272,3.604,3.453
		C283.203,29.066,282.566,31.369,279.719,31.428z"/>
</g>
</svg>
