<svg xmlns="http://www.w3.org/2000/svg" viewBox="0 0 34.6 34.7" style="enable-background:new 0 0 34.6 34.7" xml:space="preserve"><style>.st0{display:none}.st1{display:inline}</style><g id="Calque_3"><path id="_Tracé__2_" d="M12.4 18.8c.2.1.4 0 .5-.2v-.1l.2-.8c.1-.2 0-.4-.1-.6-.5-.6-.7-1.3-.7-2 0-2.7 2.1-4.9 4.8-5h.3c2.8 0 4.3 1.7 4.3 4 0 3-1.3 5.5-3.3 5.5-.9 0-1.6-.6-1.7-1.5v-.5c.4-1.2.7-2.4.9-3.7.1-.8-.4-1.4-1.2-1.5h-.2c-1.1 0-2 1.1-2 2.7 0 .6.1 1.1.3 1.6l-1.3 5.6c-.2 1.3-.2 2.6 0 3.9 0 .1.1.1.2.1 0 0 .1 0 .1-.1.8-1 1.4-2.2 1.9-3.4.1-.5.7-2.8.7-2.8.6.8 1.5 1.3 2.5 1.2 3.3 0 5.6-3 5.6-7 0-3.1-2.6-6-6.5-6-4.9 0-7.4 3.5-7.4 6.4 0 2 .7 3.6 2.1 4.2z"/><path d="M17.3 34.4c-9.4 0-17-7.6-17-17s7.6-17 17-17 17 7.6 17 17c-.1 9.4-7.7 17-17 17zm0-33.2C8.4 1.3 1.2 8.5 1.2 17.4c0 8.9 7.3 16.1 16.1 16.1 8.9 0 16.1-7.2 16.1-16.1 0-9-7.3-16.2-16.1-16.2z"/></g></svg>